<svg width="27" height="34" viewBox="0 0 27 34" fill="none" xmlns="http://www.w3.org/2000/svg">
<path d="M26.4099 12.8101C26.4099 10.1501 25.48 7.55006 23.79 5.50006C21.59 2.82006 18.3399 1.29004 14.8899 1.29004C11.4399 1.29004 8.17999 2.82006 5.98999 5.50006C4.29999 7.55006 3.37012 10.1501 3.37012 12.8101C3.37012 19.1601 8.53989 24.3301 14.8899 24.3301C21.2399 24.3301 26.4099 19.1601 26.4099 12.8101ZM25.22 12.8101C25.22 13.3401 25.1801 13.86 25.1001 14.36C23.4001 15.53 21.6799 16.3701 19.9199 16.8701C20.0399 16.3701 20.1299 15.87 20.1799 15.35C20.4099 13 19.93 10.7101 19.2 8.70007C20.55 8.35007 21.9501 7.77009 23.3701 6.90009C24.5701 8.62009 25.23 10.69 25.23 12.8L25.22 12.8101ZM19.5901 15.29C19.5301 15.89 19.42 16.48 19.27 17.05C16.42 17.73 13.5201 17.5501 10.5701 16.4901C10.5001 16.4601 10.4301 16.43 10.3501 16.41C10.2801 16.04 10.2199 15.67 10.1799 15.3C9.94993 12.91 10.49 10.5601 11.3 8.52008C12.58 8.89008 14.0599 9.16003 15.6499 9.16003C16.5899 9.16003 17.5801 9.07004 18.5901 8.85004C19.3201 10.81 19.8001 13.04 19.5801 15.3L19.5901 15.29ZM22.8701 6.25006C22.9201 6.31006 22.96 6.36004 23 6.42004C21.63 7.26004 20.28 7.81008 18.98 8.14008C17.97 5.62008 16.59 3.59008 15.77 2.52008C18.53 2.76008 21.0801 4.09007 22.8701 6.26007V6.25006ZM14.8799 2.47003C14.8799 2.47003 14.95 2.47003 14.98 2.47003C15.65 3.33003 17.2301 5.50008 18.3701 8.27008C15.8101 8.79008 13.45 8.50007 11.52 7.95007C12.64 5.33007 14.13 3.29003 14.77 2.47003C14.8 2.47003 14.8401 2.47003 14.8701 2.47003H14.8799ZM13.99 2.51007C13.22 3.53007 11.9299 5.42008 10.9299 7.77008C9.14993 7.19008 7.81012 6.42004 7.12012 5.98004C8.89012 3.97004 11.34 2.74007 13.99 2.51007ZM4.55005 12.8C4.55005 10.5 5.32999 8.25006 6.73999 6.44006C7.43999 6.89006 8.83996 7.71008 10.71 8.33008C9.88996 10.4301 9.34009 12.85 9.59009 15.35C9.62009 15.62 9.65995 15.8901 9.69995 16.1501C7.14995 15.0801 5.31006 13.6201 4.56006 12.9501C4.56006 12.9001 4.56006 12.85 4.56006 12.8H4.55005ZM4.6001 13.7601C5.5901 14.5701 7.41009 15.8801 9.84009 16.8401C10.3801 19.1601 11.6501 21.24 13.6201 23.05C8.83012 22.46 5.0501 18.5901 4.6001 13.7601ZM14.8799 23.1301C14.7899 23.1301 14.7001 23.1301 14.6101 23.1301C12.5101 21.3801 11.14 19.36 10.52 17.1C12.01 17.62 13.8201 18.0201 15.8401 18.0201C16.8701 18.0201 17.9501 17.91 19.0801 17.67C18.3901 19.7 17.0799 21.5301 15.1599 23.1301C15.0699 23.1301 14.9799 23.1301 14.8899 23.1301H14.8799ZM16.1399 23.05C17.9199 21.42 19.13 19.5601 19.74 17.5101C21.39 17.0801 23.1399 16.3401 24.9299 15.1801C23.9499 19.3301 20.4499 22.52 16.1399 23.05Z" fill="#4D4D4D"/>
<path d="M12.6699 28.53H9.25001C7.88001 28.53 6.77003 29.64 6.77003 31.01C6.77003 32.38 7.88001 33.49 9.25001 33.49H20.5501C21.9201 33.49 23.03 32.38 23.03 31.01C23.03 29.64 21.9201 28.53 20.5501 28.53H17.1299V27.96C17.1299 27.64 17.0599 27.33 16.9299 27.0499C18.2399 26.8699 19.59 26.5299 20.99 26.0499C21.38 25.92 21.58 25.4899 21.45 25.0999C21.31 24.7099 20.89 24.51 20.5 24.64C18.02 25.5 15.6901 25.85 13.5801 25.68C7.21009 25.16 1.81005 19.08 1.79005 12.4C1.79005 11.31 1.89991 10.26 2.13991 9.27999C2.52991 7.65999 3.29008 6.12995 4.32008 4.85995C5.43008 3.48995 6.81999 2.39999 8.22999 1.77999C8.60999 1.60999 8.78012 1.17995 8.61012 0.799951C8.44012 0.419951 8.0099 0.249946 7.6299 0.419946C5.9899 1.14995 4.43993 2.35996 3.16993 3.92996C1.99994 5.36996 1.13996 7.09997 0.699964 8.93997C0.439964 10.03 0.300072 11.1999 0.310072 12.4099C0.330072 19.6199 6.01011 26.1999 12.8501 27.0999C12.7401 27.3599 12.6799 27.65 12.6799 27.96V28.53H12.6699ZM13.26 29.7199C13.59 29.7199 13.8501 29.45 13.8501 29.13V27.96C13.8501 27.66 13.9799 27.4 14.1799 27.21C14.3299 27.21 14.4799 27.21 14.6299 27.21C14.9399 27.21 15.2501 27.2 15.5701 27.18C15.7901 27.37 15.9299 27.65 15.9299 27.96V29.13C15.9299 29.46 16.2 29.7199 16.52 29.7199H20.5401C21.2501 29.7199 21.8301 30.3 21.8301 31.01C21.8301 31.72 21.2501 32.2999 20.5401 32.2999H9.24C8.53 32.2999 7.94996 31.72 7.94996 31.01C7.94996 30.3 8.53 29.7199 9.24 29.7199H13.26Z" fill="#4D4D4D"/>
</svg>
