<svg width="34" height="28" viewBox="0 0 34 28" fill="none" xmlns="http://www.w3.org/2000/svg">
<path d="M18.58 0.359863H0.630005C0.340005 0.359863 0.0999756 0.62988 0.0999756 0.93988V22.8299C0.0999756 23.1399 0.340005 23.4099 0.630005 23.4099H13.89V26.7399C13.89 27.1399 14.3499 27.5099 14.6899 27.2399C15.0599 26.9399 15.4401 26.6299 15.8101 26.3299C16.0901 26.1099 16.36 25.8799 16.64 25.6599C16.71 25.5999 16.81 25.5399 16.9 25.4799C16.95 25.5199 17 25.5499 17.04 25.5899C17.28 25.8299 17.57 26.0299 17.84 26.2399C18.25 26.5699 18.6501 26.9099 19.0601 27.2399C19.2901 27.4299 19.51 27.3599 19.66 27.1899C19.78 27.0999 19.86 26.9499 19.86 26.7399V23.4099H32.9301C33.0901 23.4099 33.2 23.3499 33.29 23.2599C33.29 23.2599 33.3001 23.2499 33.3101 23.2399C33.3101 23.2399 33.3101 23.2399 33.3101 23.2299C33.4001 23.1399 33.45 23.0099 33.45 22.8399V0.94989C33.45 0.63989 33.21 0.369873 32.92 0.369873H18.58V0.359863ZM13.89 22.2499H1.16003V1.50989H13.89V22.2499ZM18.79 25.5899C18.24 25.1399 17.69 24.6899 17.14 24.2399C17 24.1299 16.74 24.1299 16.61 24.2399C16.06 24.6899 15.5 25.1399 14.95 25.5999V1.5199H18.79V25.5999V25.5899ZM19.85 1.50989H32.39V22.2499H19.85V1.50989Z" fill="white"/>
<path d="M3.56003 6.95996H11.04C11.49 6.95996 11.49 6.18994 11.04 6.18994H3.56003C3.11003 6.18994 3.11003 6.95996 3.56003 6.95996Z" fill="white"/>
<path d="M3.56003 10.21H11.04C11.49 10.21 11.49 9.43994 11.04 9.43994H3.56003C3.11003 9.43994 3.11003 10.21 3.56003 10.21Z" fill="white"/>
<path d="M3.56003 13.46H11.04C11.49 13.46 11.49 12.6899 11.04 12.6899H3.56003C3.11003 12.6899 3.11003 13.46 3.56003 13.46Z" fill="white"/>
<path d="M3.56003 16.7H11.04C11.49 16.7 11.49 15.9299 11.04 15.9299H3.56003C3.11003 15.9299 3.11003 16.7 3.56003 16.7Z" fill="white"/>
<path d="M30.02 6.18994H22.54C22.09 6.18994 22.09 6.95996 22.54 6.95996H30.02C30.47 6.95996 30.47 6.18994 30.02 6.18994Z" fill="white"/>
<path d="M30.02 9.42993H22.54C22.09 9.42993 22.09 10.2 22.54 10.2H30.02C30.47 10.2 30.47 9.42993 30.02 9.42993Z" fill="white"/>
<path d="M30.02 12.6799H22.54C22.09 12.6799 22.09 13.45 22.54 13.45H30.02C30.47 13.45 30.47 12.6799 30.02 12.6799Z" fill="white"/>
<path d="M30.02 15.9299H22.54C22.09 15.9299 22.09 16.7 22.54 16.7H30.02C30.47 16.7 30.47 15.9299 30.02 15.9299Z" fill="white"/>
</svg>
