<svg width="39" height="23" viewBox="0 0 39 23" fill="none" xmlns="http://www.w3.org/2000/svg">
<path d="M5.62999 12.2401C4.93999 12.3901 4.42003 13.0001 4.42003 13.7401C4.42003 14.0801 4.53009 14.4001 4.73009 14.6601L4.0902 18.4401C4.0602 18.6001 4.11007 18.7701 4.21007 18.8901C4.32007 19.0201 4.47 19.0901 4.64 19.0901H7.25011C7.41011 19.0901 7.56003 19.0201 7.67003 18.9001C7.78003 18.7801 7.82016 18.6201 7.80016 18.4601L7.26012 14.5201C7.40012 14.2901 7.47008 14.0201 7.47008 13.7401C7.47008 13.1901 7.1801 12.7101 6.7401 12.4401V10.3901L10.18 11.8801V20.4301C10.18 21.4801 11.0402 22.3401 12.0902 22.3401H27.8102C28.8602 22.3401 29.7201 21.4801 29.7201 20.4301V11.3601L37.92 7.80008C38.13 7.71008 38.2601 7.50011 38.2501 7.27011C38.2501 7.04011 38.0902 6.84011 37.8702 6.77011L19.2101 0.400117C19.0901 0.360117 18.9502 0.360117 18.8302 0.400117C12.4402 2.82012 1.95009 6.68007 0.980091 6.73007C0.720091 6.73007 0.490052 6.92008 0.440052 7.17008C0.390052 7.43008 0.52012 7.69007 0.76012 7.79007L5.61022 9.89011V12.2301L5.62999 12.2401ZM5.30016 17.9801L5.87023 14.5801C5.90023 14.3801 5.83004 14.1901 5.68004 14.0601C5.59004 13.9801 5.53014 13.8601 5.53014 13.7401C5.53014 13.5101 5.72005 13.3301 5.94005 13.3301C6.16005 13.3301 6.36022 13.5201 6.36022 13.7401C6.36022 13.8701 6.30012 13.9601 6.26012 14.0101C6.15012 14.1301 6.10999 14.2901 6.12999 14.4501L6.62023 17.9801H5.30016ZM28.6102 20.4301C28.6102 20.8701 28.2502 21.2301 27.8102 21.2301H12.0902C11.6502 21.2301 11.2901 20.8701 11.2901 20.4301V12.3601L19.1202 15.7601C19.1902 15.7901 19.2702 15.8101 19.3402 15.8101C19.4102 15.8101 19.4902 15.7901 19.5602 15.7601L28.6002 11.8401V20.4301H28.6102ZM2.69005 7.41007C6.72005 6.15007 16.4102 2.5101 19.0602 1.5101L36.17 7.35007L19.3602 14.6401L8.26012 9.8201L17.63 8.58011C18.04 8.83011 18.6502 8.99008 19.3602 8.99008C20.6502 8.99008 21.63 8.48007 21.63 7.79007C21.63 7.10007 20.6602 6.59012 19.3602 6.59012C18.2502 6.59012 17.37 6.97011 17.15 7.52011L6.27013 8.96011L2.70006 7.41007H2.69005ZM17.64 7.80008C17.64 7.54008 18.3102 7.16007 19.3502 7.16007C20.3902 7.16007 21.0602 7.54008 21.0602 7.80008C21.0602 8.06008 20.3902 8.44009 19.3502 8.44009C18.3102 8.44009 17.64 8.06008 17.64 7.80008Z" fill="#4D4D4D"/>
</svg>
