<svg width="35" height="21" viewBox="0 0 35 21" fill="none" xmlns="http://www.w3.org/2000/svg">
<path d="M0.870117 0.360046C0.860117 0.360046 0.850078 0.360046 0.830078 0.360046C0.800078 0.360046 0.78 0.360046 0.75 0.360046C0.75 0.360046 0.73998 0.360046 0.72998 0.360046C0.71998 0.360046 0.709951 0.360046 0.699951 0.360046C0.649951 0.380046 0.600049 0.400054 0.550049 0.430054C0.500049 0.460054 0.459932 0.500039 0.429932 0.540039C0.429932 0.540039 0.429922 0.540049 0.419922 0.550049C0.419922 0.550049 0.409902 0.560068 0.399902 0.570068C0.379902 0.600068 0.360098 0.630034 0.350098 0.660034C0.350098 0.660034 0.350098 0.660044 0.350098 0.670044C0.350098 0.670044 0.350098 0.670054 0.350098 0.680054C0.350098 0.680054 0.350088 0.700083 0.340088 0.710083C0.340088 0.730083 0.330068 0.750081 0.320068 0.770081C0.320068 0.770081 0.320068 0.780039 0.320068 0.790039C0.320068 0.820039 0.310049 0.840056 0.300049 0.870056C0.300049 0.870056 0.300049 0.870066 0.300049 0.880066C0.300049 0.890066 0.300049 0.900034 0.300049 0.910034C0.300049 0.940034 0.300049 0.970051 0.300049 0.990051C0.300049 0.990051 0.300049 1.00007 0.300049 1.01007V1.03009C0.300049 1.04009 0.300049 1.05006 0.300049 1.06006C0.300049 1.07006 0.300049 1.09004 0.300049 1.10004C0.310049 1.13004 0.320088 1.16006 0.340088 1.19006L11.45 20.36C11.55 20.53 11.7199 20.64 11.9199 20.66C11.9399 20.66 11.96 20.66 11.97 20.66C12.15 20.66 12.3199 20.5801 12.4299 20.4501L18.8501 12.8401L25.8601 15.5001C25.8601 15.5001 25.8899 15.5101 25.8999 15.5101C25.9699 15.5401 26.0401 15.55 26.1101 15.55C26.2901 15.55 26.4601 15.4701 26.5801 15.3301C26.7101 15.1701 26.7399 14.9501 26.6799 14.7601L26.02 5.46008L34.6399 1.62006C34.8999 1.50006 35.04 1.22007 34.98 0.950073C34.92 0.670073 34.6799 0.470032 34.3899 0.470032L0.870117 0.300049V0.360046ZM19.6799 11.9301L20.2 11.3101L21.8101 9.40009L24.6201 13.8101L19.6699 11.9301H19.6799ZM31.5901 1.72003L25.3101 4.52008L8.19995 1.60004L31.5901 1.72003ZM24.8201 5.66003L25.3201 12.6501L22.3899 8.06006C22.3899 8.06006 22.3601 8.03007 22.3501 8.01007C22.3401 7.99007 22.3201 7.98008 22.3101 7.96008C22.3001 7.95008 22.28 7.94004 22.27 7.92004C22.26 7.92004 22.25 7.90008 22.24 7.89008C22.23 7.89008 22.22 7.87005 22.2 7.86005C22.18 7.84005 22.1499 7.83007 22.1299 7.82007C22.1199 7.82007 22.1001 7.80005 22.0901 7.80005L7.73999 2.73004L24.8301 5.65009L24.8201 5.66003ZM20.8601 8.66003L12.0701 19.0801L2.20996 2.07007L20.8601 8.65009V8.66003Z" fill="#4D4D4D"/>
</svg>
