<svg width="35" height="34" viewBox="0 0 35 34" fill="none" xmlns="http://www.w3.org/2000/svg">
<path d="M27.3 0.770009C27.19 0.480009 26.8599 0.330001 26.5699 0.450001C26.2799 0.560001 26.13 0.889982 26.25 1.17998L27.88 5.40001C27.88 5.40001 27.9 5.42999 27.9 5.43999L26.7 6.64L25.22 2.71001C25.11 2.42001 24.79 2.26999 24.49 2.37999C24.2 2.48999 24.05 2.81997 24.16 3.10997L25.79 7.46001C25.79 7.46001 25.8099 7.5 25.8199 7.51L22.97 10.36C20.57 8.14997 17.37 6.79998 13.86 6.79998C6.43999 6.79998 0.400024 12.84 0.400024 20.26C0.400024 27.68 6.43999 33.72 13.86 33.72C21.28 33.72 27.3199 27.68 27.3199 20.26C27.3199 16.75 25.97 13.55 23.76 11.15L26.29 8.61998C26.38 8.74998 26.5199 8.83997 26.6899 8.85997L31.99 9.43999C31.99 9.43999 32.03 9.43999 32.05 9.43999C32.33 9.43999 32.58 9.22999 32.61 8.93999C32.64 8.62999 32.42 8.35 32.11 8.32L27.14 7.77001L28.6 6.30999C28.6 6.30999 28.65 6.32001 28.67 6.33001L33.97 6.90996C33.97 6.90996 34.01 6.90996 34.03 6.90996C34.31 6.90996 34.56 6.69996 34.59 6.40996C34.62 6.09996 34.4 5.81997 34.09 5.78997L29.61 5.29998L32.33 2.58001C32.55 2.36001 32.55 2.00002 32.33 1.78002C32.11 1.56002 31.75 1.56002 31.53 1.78002L28.74 4.57L27.27 0.770009H27.3ZM26.21 20.27C26.21 27.07 20.68 32.6 13.88 32.6C7.08 32.6 1.55005 27.07 1.55005 20.27C1.55005 13.47 7.08 7.93999 13.88 7.93999C17.08 7.93999 19.9999 9.15997 22.1899 11.17L19.52 13.84C18.01 12.52 16.04 11.71 13.88 11.71C9.15001 11.71 5.31006 15.55 5.31006 20.28C5.31006 25.01 9.16001 28.85 13.88 28.85C18.6 28.85 22.45 25 22.45 20.28C22.45 18.12 21.6399 16.14 20.3199 14.64L22.99 11.97C24.99 14.16 26.22 17.08 26.22 20.28L26.21 20.27ZM13.48 20.67C13.59 20.78 13.73 20.84 13.88 20.84C14.03 20.84 14.17 20.78 14.28 20.67L16.02 18.93C16.26 19.32 16.41 19.78 16.41 20.27C16.41 21.66 15.28 22.8 13.88 22.8C12.48 22.8 11.35 21.67 11.35 20.27C11.35 18.87 12.48 17.74 13.88 17.74C14.37 17.74 14.83 17.88 15.22 18.13L13.48 19.87C13.26 20.09 13.26 20.45 13.48 20.67ZM16.03 17.32C15.43 16.88 14.68 16.61 13.88 16.61C11.86 16.61 10.22 18.25 10.22 20.27C10.22 22.29 11.86 23.93 13.88 23.93C15.9 23.93 17.54 22.29 17.54 20.27C17.54 19.47 17.28 18.72 16.83 18.12L19.52 15.43C20.64 16.73 21.3199 18.42 21.3199 20.27C21.3199 24.37 17.98 27.71 13.88 27.71C9.78 27.71 6.43994 24.37 6.43994 20.27C6.43994 16.17 9.78 12.83 13.88 12.83C15.73 12.83 17.42 13.51 18.72 14.63L16.03 17.32Z" fill="#4D4D4D"/>
</svg>
