<svg width="62" height="46" viewBox="0 0 62 46" fill="none" xmlns="http://www.w3.org/2000/svg">
<mask id="mask0_4_82" style="mask-type:luminance" maskUnits="userSpaceOnUse" x="0" y="0" width="62" height="46">
<path d="M61.96 0.77002H0.959961V45.56H61.96V0.77002Z" fill="white"/>
</mask>
<g mask="url(#mask0_4_82)">
<mask id="mask1_4_82" style="mask-type:luminance" maskUnits="userSpaceOnUse" x="-16" y="-24" width="95" height="95">
<path d="M78.6 -23.98H-15.6801V70.3H78.6V-23.98Z" fill="white"/>
</mask>
<g mask="url(#mask1_4_82)">
<path fill-rule="evenodd" clip-rule="evenodd" d="M54.13 17.9299C54.04 19.0599 53.8501 20.1899 53.5601 21.2299L60.54 24.6199L58.84 28.3899L51.53 26.1099C50.87 27.3399 50.35 28.1999 49.51 29.2399L54.6 34.9899L51.6801 37.8199L45.74 33.0099C44.8 33.7599 43.8499 34.4199 42.8199 34.9899L45.1801 42.5299L41.3101 43.8499L37.92 37.0599C36.69 37.4399 35.37 37.7199 34.05 37.9099L33.48 45.5499L29.4301 45.4599L28.77 37.9199C27.45 37.7299 26.22 37.4499 25.09 37.1699L21.3199 43.9599L17.64 42.2599L20.1899 35.0899C19.1499 34.4299 18.18 33.8199 17.23 33.0599L10.95 37.8199L8.31006 34.7099L13.5 29.3399C12.75 28.3999 11.9901 27.2699 11.4301 26.2299L3.89001 28.4899L2.56995 24.6199L9.44995 21.3199C9.06995 20.2799 8.87995 19.0599 8.69995 17.9299L0.969971 17.0799V15.1899H10.12C10.12 26.9799 19.6401 36.5899 31.4301 36.5899C43.2201 36.5899 52.83 26.9699 52.83 15.1899H61.98V17.0799L54.15 17.9299H54.13Z" fill="#4BB559"/>
<path fill-rule="evenodd" clip-rule="evenodd" d="M31.51 32.45C41.03 32.45 48.76 24.72 48.76 15.2H50.27C50.27 25.57 41.78 34.06 31.41 34.06C21.04 34.06 12.55 25.57 12.55 15.2H14.25C14.25 24.72 21.98 32.45 31.5 32.45" fill="#4BB559"/>
<path fill-rule="evenodd" clip-rule="evenodd" d="M31.41 28.49C38.76 28.49 44.7 22.55 44.7 15.2H46.21C46.21 23.4 39.61 30 31.41 30C23.21 30 16.61 23.4 16.61 15.2H18.12C18.12 22.55 24.06 28.49 31.41 28.49Z" fill="#4BB559"/>
<path fill-rule="evenodd" clip-rule="evenodd" d="M14.91 16.42H19.91V0.77002H14.91V16.42ZM18.6801 15.19H16.23V2.18002H18.6801V15.19Z" fill="#4BB559"/>
<path fill-rule="evenodd" clip-rule="evenodd" d="M49.04 2.18001H41.21V4.25001H44.04V15.19H46.49V4.25001H49.04V2.18001ZM47.72 5.76001V16.41H42.72V5.76001H39.8V0.76001H50.36V5.76001H47.72Z" fill="#4BB559"/>
<path fill-rule="evenodd" clip-rule="evenodd" d="M25.76 1.99002H23.12L20.01 8.68002L23.12 15.19L25.76 15.28L22.65 8.68002L25.76 1.99002ZM27.65 16.42H22.37L18.6899 8.69002L22.37 0.77002H27.65L23.97 8.69002L27.65 16.42Z" fill="#4BB559"/>
<path fill-rule="evenodd" clip-rule="evenodd" d="M32.17 7.54989H29.72V15.1899H32.17V7.54989ZM28.4 6.13989H33.4V16.4199H28.4V6.13989Z" fill="#4BB559"/>
<path fill-rule="evenodd" clip-rule="evenodd" d="M37.76 7.54989H35.45V15.1899H37.76V7.54989ZM34.0601 6.13989H39.0601V16.4199H34.0601V6.13989Z" fill="#4BB559"/>
<path fill-rule="evenodd" clip-rule="evenodd" d="M39.05 3.26001C39.05 4.64001 37.93 5.76001 36.55 5.76001C35.17 5.76001 34.05 4.64001 34.05 3.26001C34.05 1.88001 35.17 0.76001 36.55 0.76001C37.93 0.76001 39.05 1.88001 39.05 3.26001Z" fill="#4BB559"/>
<path fill-rule="evenodd" clip-rule="evenodd" d="M33.39 3.26001C33.39 4.64001 32.27 5.76001 30.89 5.76001C29.51 5.76001 28.39 4.64001 28.39 3.26001C28.39 1.88001 29.51 0.76001 30.89 0.76001C32.27 0.76001 33.39 1.88001 33.39 3.26001Z" fill="#4BB559"/>
</g>
</g>
</svg>
